<svg xmlns="http://www.w3.org/2000/svg" width="141.87" height="35" viewBox="0 0 141.87 35"><rect class="svg__rect" x="0" y="0" width="109.64" height="35" fill="#404040"/><rect class="svg__rect" x="107.64" y="0" width="34.22999999999999" height="35" fill="#FF0000"/><path class="svg__text" d="M19.57 22L14.22 22L14.22 13.47L15.70 13.47L15.70 20.82L19.57 20.82L19.57 22ZM24.48 22L22.94 22L26.16 13.47L27.49 13.47L30.72 22L29.17 22L28.47 20.01L25.17 20.01L24.48 22ZM26.82 15.28L25.58 18.82L28.06 18.82L26.82 15.28ZM36.15 22L34.67 22L34.67 13.47L36.15 13.47L39.97 19.54L39.97 13.47L41.44 13.47L41.44 22L39.96 22L36.15 15.95L36.15 22ZM45.93 18.13L45.93 18.13L45.93 17.46Q45.93 15.53 46.86 14.44Q47.79 13.35 49.44 13.35L49.44 13.35Q50.87 13.35 51.71 14.05Q52.54 14.76 52.71 16.08L52.71 16.08L51.26 16.08Q51.01 14.54 49.47 14.54L49.47 14.54Q48.48 14.54 47.96 15.26Q47.44 15.98 47.42 17.37L47.42 17.37L47.42 18.02Q47.42 19.40 48.01 20.17Q48.59 20.93 49.63 20.93L49.63 20.93Q50.76 20.93 51.24 20.42L51.24 20.42L51.24 18.75L49.48 18.75L49.48 17.62L52.72 17.62L52.72 20.89Q52.26 21.50 51.44 21.81Q50.62 22.12 49.57 22.12L49.57 22.12Q48.50 22.12 47.67 21.63Q46.85 21.14 46.40 20.24Q45.95 19.33 45.93 18.13ZM57.20 19.16L57.20 19.16L57.20 13.47L58.68 13.47L58.68 19.18Q58.68 20.03 59.11 20.48Q59.55 20.93 60.39 20.93L60.39 20.93Q62.10 20.93 62.10 19.13L62.10 19.13L62.10 13.47L63.58 13.47L63.58 19.17Q63.58 20.53 62.71 21.32Q61.84 22.12 60.39 22.12L60.39 22.12Q58.92 22.12 58.06 21.33Q57.20 20.55 57.20 19.16ZM68.93 22L67.39 22L70.61 13.47L71.94 13.47L75.17 22L73.62 22L72.92 20.01L69.62 20.01L68.93 22ZM71.27 15.28L70.03 18.82L72.51 18.82L71.27 15.28ZM78.88 18.13L78.88 18.13L78.88 17.46Q78.88 15.53 79.80 14.44Q80.73 13.35 82.39 13.35L82.39 13.35Q83.81 13.35 84.65 14.05Q85.48 14.76 85.65 16.08L85.65 16.08L84.20 16.08Q83.96 14.54 82.41 14.54L82.41 14.54Q81.42 14.54 80.90 15.26Q80.38 15.98 80.36 17.37L80.36 17.37L80.36 18.02Q80.36 19.40 80.95 20.17Q81.53 20.93 82.57 20.93L82.57 20.93Q83.70 20.93 84.18 20.42L84.18 20.42L84.18 18.75L82.43 18.75L82.43 17.62L85.66 17.62L85.66 20.89Q85.20 21.50 84.38 21.81Q83.56 22.12 82.51 22.12L82.51 22.12Q81.44 22.12 80.62 21.63Q79.79 21.14 79.34 20.24Q78.89 19.33 78.88 18.13ZM95.86 22L90.28 22L90.28 13.47L95.81 13.47L95.81 14.66L91.76 14.66L91.76 17.02L95.26 17.02L95.26 18.19L91.76 18.19L91.76 20.82L95.86 20.82L95.86 22Z" fill="#FFFFFF"/><path class="svg__text" d="M121.40 17.80L121.40 17.80Q121.40 16.54 122.00 15.54Q122.60 14.55 123.65 13.99Q124.70 13.43 126.02 13.43L126.02 13.43Q127.17 13.43 128.09 13.84Q129.02 14.25 129.63 15.02L129.63 15.02L128.12 16.39Q127.31 15.40 126.14 15.40L126.14 15.40Q125.45 15.40 124.92 15.70Q124.39 16 124.09 16.54Q123.80 17.09 123.80 17.80L123.80 17.80Q123.80 18.51 124.09 19.05Q124.39 19.60 124.92 19.90Q125.45 20.20 126.14 20.20L126.14 20.20Q127.31 20.20 128.12 19.22L128.12 19.22L129.63 20.58Q129.02 21.35 128.10 21.76Q127.17 22.17 126.02 22.17L126.02 22.17Q124.70 22.17 123.65 21.61Q122.60 21.05 122.00 20.05Q121.40 19.06 121.40 17.80Z" fill="#FFFFFF" x="120.64"/></svg>